# xmcd
#
# Track frame offsets:
#       150
#       16371
#       33163
#       47771
#       62286
#       76867
#       91517
#       106293
#       120047
#       133956
#       147922
#       162044
#       176247
#       190409
#       204427
#       218666
#       232950
#       247252
#       261559
#       275820
#       290261
#
# Disc length: 4070 seconds
#
# Revision: 1
# Processed by: cddbd v1.5.2PL0 Copyright (c) Steve Scherf et al.
# Submitted via: FreeDbEdit v0.1
#
DISCID=260fe415
DTITLE=Bessie Smith - Jazz Classic's [CD2]
DYEAR=1900
DGENRE=Blues
TTITLE0=Rainy Weather Blues
TTITLE1=Nashville Woman's Blues
TTITLE2=Love Me Dady Blues
TTITLE3=Mountain Top Blues
TTITLE4=Frosty Mornin' Blues
TTITLE5=Rockin' Chair Blues
TTITLE6=Pinchbacks, Take 'Em Away
TTITLE7=The Yellow Dog Blues
TTITLE8=Sing Sing Prison Blues
TTITLE9=Woman's Trouble Blues
TTITLE10=Easy Come, Easy Go Blues
TTITLE11=Dixie Flyer Blues
TTITLE12=Hateful Blues
TTITLE13=House Rent Blues
TTITLE14=Thinking Blues
TTITLE15=He's Gone Blues
TTITLE16=I Ain't Got Nobody
TTITLE17=Sinful Blues
TTITLE18=Eavesdropper's Blues
TTITLE19=My Sweetie Went Away (She Didn't Say Where, When Or)
TTITLE20=Work House Blues
EXTD=
EXTT0=
EXTT1=
EXTT2=
EXTT3=
EXTT4=
EXTT5=
EXTT6=
EXTT7=
EXTT8=
EXTT9=
EXTT10=
EXTT11=
EXTT12=
EXTT13=
EXTT14=
EXTT15=
EXTT16=
EXTT17=
EXTT18=
EXTT19=
EXTT20=
PLAYORDER=
